<svg  viewBox="0 0 147 39" fill="none" xmlns="http://www.w3.org/2000/svg">
<path d="M0.928711 24.5479C0.928711 21.96 1.44141 19.6325 2.4668 17.5654C3.49219 15.4821 4.93262 13.887 6.78809 12.7803C8.64355 11.6572 10.7757 11.0957 13.1846 11.0957C16.749 11.0957 19.638 12.2432 21.8516 14.5381C24.0814 16.833 25.2858 19.8766 25.4648 23.6689L25.4893 25.0605C25.4893 27.6647 24.9847 29.9922 23.9756 32.043C22.9827 34.0938 21.5505 35.6807 19.6787 36.8037C17.8232 37.9268 15.6748 38.4883 13.2334 38.4883C9.50618 38.4883 6.51953 37.2513 4.27344 34.7773C2.04362 32.2871 0.928711 28.9749 0.928711 24.8408V24.5479ZM6.86133 25.0605C6.86133 27.7786 7.42285 29.9108 8.5459 31.457C9.66895 32.987 11.2314 33.752 13.2334 33.752C15.2354 33.752 16.7897 32.9707 17.8965 31.4082C19.0195 29.8457 19.5811 27.5589 19.5811 24.5479C19.5811 21.8786 19.0033 19.7627 17.8477 18.2002C16.7083 16.6377 15.154 15.8564 13.1846 15.8564C11.2477 15.8564 9.70964 16.6296 8.57031 18.1758C7.43099 19.7057 6.86133 22.0007 6.86133 25.0605ZM29.3955 24.5479C29.3955 21.96 29.9082 19.6325 30.9336 17.5654C31.959 15.4821 33.3994 13.887 35.2549 12.7803C37.1104 11.6572 39.2425 11.0957 41.6514 11.0957C45.2158 11.0957 48.1048 12.2432 50.3184 14.5381C52.5482 16.833 53.7526 19.8766 53.9316 23.6689L53.9561 25.0605C53.9561 27.6647 53.4515 29.9922 52.4424 32.043C51.4495 34.0938 50.0173 35.6807 48.1455 36.8037C46.29 37.9268 44.1416 38.4883 41.7002 38.4883C37.973 38.4883 34.9863 37.2513 32.7402 34.7773C30.5104 32.2871 29.3955 28.9749 29.3955 24.8408V24.5479ZM35.3281 25.0605C35.3281 27.7786 35.8896 29.9108 37.0127 31.457C38.1357 32.987 39.6982 33.752 41.7002 33.752C43.7021 33.752 45.2565 32.9707 46.3633 31.4082C47.4863 29.8457 48.0479 27.5589 48.0479 24.5479C48.0479 21.8786 47.4701 19.7627 46.3145 18.2002C45.1751 16.6377 43.6208 15.8564 41.6514 15.8564C39.7145 15.8564 38.1764 16.6296 37.0371 18.1758C35.8978 19.7057 35.3281 22.0007 35.3281 25.0605ZM86.793 33.3857C85.5072 35.0622 83.7249 36.3317 81.4463 37.1943C79.1676 38.057 76.5798 38.4883 73.6826 38.4883C70.7041 38.4883 68.0674 37.8128 65.7725 36.4619C63.4775 35.111 61.7035 33.1823 60.4502 30.6758C59.2132 28.153 58.5703 25.2152 58.5215 21.8623V19.0791C58.5215 13.708 59.8073 9.51693 62.3789 6.50586C64.9505 3.47852 68.5394 1.96484 73.1455 1.96484C77.1006 1.96484 80.2419 2.94141 82.5693 4.89453C84.8968 6.84766 86.2965 9.66341 86.7686 13.3418H80.7139C80.0303 9.0612 77.5482 6.9209 73.2676 6.9209C70.5007 6.9209 68.3929 7.92188 66.9443 9.92383C65.512 11.9095 64.7715 14.8311 64.7227 18.6885V21.4229C64.7227 25.264 65.5283 28.2507 67.1396 30.3828C68.7673 32.4987 71.0215 33.5566 73.9023 33.5566C77.0599 33.5566 79.306 32.8405 80.6406 31.4082V24.4502H73.3164V19.7627H86.793V33.3857ZM99.3174 38H93.3848V0.5H99.3174V38ZM121.583 38C121.323 37.4954 121.095 36.6735 120.899 35.5342C119.011 37.5036 116.7 38.4883 113.966 38.4883C111.313 38.4883 109.148 37.7314 107.472 36.2178C105.795 34.7041 104.957 32.8324 104.957 30.6025C104.957 27.7868 105.999 25.6302 108.082 24.1328C110.182 22.6191 113.176 21.8623 117.066 21.8623H120.704V20.1289C120.704 18.7617 120.322 17.6712 119.557 16.8574C118.792 16.0273 117.628 15.6123 116.065 15.6123C114.715 15.6123 113.608 15.9541 112.745 16.6377C111.882 17.305 111.451 18.1595 111.451 19.2012H105.519C105.519 17.7526 105.999 16.4017 106.959 15.1484C107.919 13.8789 109.221 12.8861 110.865 12.1699C112.525 11.4538 114.373 11.0957 116.407 11.0957C119.5 11.0957 121.965 11.877 123.805 13.4395C125.644 14.9857 126.588 17.1667 126.637 19.9824V31.8965C126.637 34.2728 126.97 36.1689 127.638 37.585V38H121.583ZM115.064 33.7275C116.236 33.7275 117.335 33.4427 118.36 32.873C119.402 32.3034 120.183 31.5384 120.704 30.5781V25.5977H117.506C115.309 25.5977 113.657 25.9801 112.55 26.7451C111.443 27.5101 110.89 28.5924 110.89 29.9922C110.89 31.1315 111.264 32.043 112.013 32.7266C112.778 33.3939 113.795 33.7275 115.064 33.7275ZM146.681 17.0039C145.899 16.8737 145.094 16.8086 144.264 16.8086C141.546 16.8086 139.715 17.8503 138.771 19.9336V38H132.838V11.584H138.502L138.648 14.5381C140.081 12.2432 142.066 11.0957 144.605 11.0957C145.452 11.0957 146.152 11.2096 146.705 11.4375L146.681 17.0039Z" fill="url(#paint0_radial_601:2)"/>
<defs>
<radialGradient id="paint0_radial_601:2" cx="0" cy="0" r="1" gradientUnits="userSpaceOnUse" gradientTransform="translate(134 38) rotate(-174.971) scale(125.483 316.898)">
<stop stop-color="#10B652"/>
<stop offset="1" stop-color="#06F2BA"/>
</radialGradient>
</defs>
</svg>
